<svg xmlns="http://www.w3.org/2000/svg" width="103" height="104.078" viewBox="0 0 103 104.078"><g transform="translate(2145 585.48)"><path d="M-2401.2-614.545c-4.385,13.313-6.435,20.57-3.6,31.325a28.426,28.426,0,0,0,7.768,12.675,50.737,50.737,0,0,0,14.316,8.783,75.3,75.3,0,0,1-2.855-12.841,34.139,34.139,0,0,1,.506-10.339l-5.05-6.448-5.6-7.649s3.009,2.438,5.867,5.3,5.567,6.137,5.567,6.137a29.888,29.888,0,0,1,2.714-5.04,18.255,18.255,0,0,1,3.395-3.574,35.055,35.055,0,0,1-5.326-2.819c-1.1-.691-2.651-1.439-4.306-2.353-.123-.068-.337-.188-.55-.31-.373-.215-2.6-1.593-2.755-1.637C-2398.187-607.068-2401.2-614.545-2401.2-614.545Z" transform="translate(281.606 53.884)" fill="#07f" stroke="#07f" stroke-width="1"/><path d="M-2363.595-656.857l10.529,5.813s1.919-9.487,3.51-14.971,2.852-6.965,2.852-6.965-2.795,11-2.852,11.352a85.308,85.308,0,0,0-.932,12.01l2.522,1.755,16.452-9.487a54.445,54.445,0,0,0-1.645-10.09c-1.3-4.456-1.193-3.935-3.565-7.732s-2.92-4.182-5.923-7.458a53.784,53.784,0,0,0-6.087-5.648,16.943,16.943,0,0,1-.219,6.69,21.541,21.541,0,0,1-3.291,6.416,131.908,131.908,0,0,0-7.787,10.694A29.086,29.086,0,0,0-2363.595-656.857Z" transform="translate(253.691 104)" fill="#07f" stroke="#07f" stroke-width="1"/><path d="M-2306.251-614.634a56.119,56.119,0,0,1,4.42,11.881,41.6,41.6,0,0,1,.713,11.549,29.972,29.972,0,0,1-1.426,8.911,32.881,32.881,0,0,1-4.491,8.127,29.412,29.412,0,0,1-8.84,7.985c-5.882,3.511-14.686,6.3-14.686,6.06a104.772,104.772,0,0,1,7.557-23.6l.145-.3a59.278,59.278,0,0,1,4.846-7.975,53.277,53.277,0,0,1,6.06-6.7,74.585,74.585,0,0,0-13.973,15.47c-5.739,8.858-8.982,19.961-8.982,19.961a60.183,60.183,0,0,1-2.781-10.337,30.351,30.351,0,0,1,0-8.7l1-3.992a20.887,20.887,0,0,1,3.208-5.7,34.753,34.753,0,0,1,4.919-4.776s15.627-7.747,19.534-11.335a7.538,7.538,0,0,0,2.78-5.775C-2306.008-614.955-2306.251-614.634-2306.251-614.634Z" transform="translate(236.992 53.972)" fill="#07f" stroke="#07f" stroke-width="1"/><g transform="translate(4 -2)"><text transform="translate(-2149 -510.401)" fill="#07f" font-size="20" font-family="LucidaSansUnicode, Lucida Sans Unicode"><tspan x="5.541" y="22" fill="#000">Friend</tspan><tspan y="22" fill="#07f">lier</tspan></text></g></g></svg>