<svg xmlns="http://www.w3.org/2000/svg" width="74.201" height="96.214" viewBox="0 0 74.201 96.214"><g transform="translate(2143.213 476.714)"><path d="M-2400.174-614.545c-5.3,16.1-7.782,24.878-4.357,37.886a34.375,34.375,0,0,0,9.395,15.329,61.365,61.365,0,0,0,17.315,10.623,91.077,91.077,0,0,1-3.454-15.531,41.289,41.289,0,0,1,.613-12.505l-6.107-7.8-6.775-9.251s3.639,2.949,7.1,6.406,6.733,7.422,6.733,7.422a36.139,36.139,0,0,1,3.282-6.1,22.083,22.083,0,0,1,4.106-4.323,42.383,42.383,0,0,1-6.441-3.41c-1.325-.836-3.206-1.741-5.208-2.845-.149-.082-.407-.227-.665-.375-.45-.26-3.141-1.927-3.333-1.98C-2396.53-605.5-2400.174-614.545-2400.174-614.545Z" transform="translate(263.364 167.597)" fill="#07f" stroke="#07f" stroke-width="1"/><path d="M-2363.6-650.275l12.734,7.03s2.321-11.474,4.245-18.107,3.448-8.423,3.448-8.423-1.069,2.3-1.363,3.228c-.181.57.4-.2,0,1.229-.067.237-.136.485-.26.943a84.115,84.115,0,0,0-1.826,8.329,103.147,103.147,0,0,0-1.127,14.525l3.051,2.122,19.9-11.474a65.87,65.87,0,0,0-1.99-12.2c-1.575-5.389-1.442-4.759-4.311-9.352s-3.532-5.057-7.163-9.02a65.048,65.048,0,0,0-7.362-6.831,20.487,20.487,0,0,1-.265,8.092,26.052,26.052,0,0,1-3.979,7.76,159.557,159.557,0,0,0-9.418,12.933A35.185,35.185,0,0,0-2363.6-650.275Z" transform="translate(238.505 212.766)" fill="#07f" stroke="#07f" stroke-width="1"/><path d="M-2299.6-614.624a67.858,67.858,0,0,1,5.346,14.369,50.315,50.315,0,0,1,.862,13.968,36.248,36.248,0,0,1-1.725,10.778,39.763,39.763,0,0,1-5.432,9.829,35.568,35.568,0,0,1-10.692,9.657c-7.113,4.246-17.762,7.625-17.762,7.329s2.96-15.816,9.14-28.54c.04-.082.175-.357.175-.357a71.7,71.7,0,0,1,5.86-9.645,64.465,64.465,0,0,1,7.329-8.1,90.207,90.207,0,0,0-16.9,18.71c-6.941,10.713-10.864,24.142-10.864,24.142a72.761,72.761,0,0,1-3.363-12.5,36.691,36.691,0,0,1,0-10.519l1.207-4.828a25.26,25.26,0,0,1,3.88-6.9,42.039,42.039,0,0,1,5.949-5.777s18.9-9.37,23.625-13.709a9.118,9.118,0,0,0,3.363-6.984C-2299.308-615.014-2299.6-614.624-2299.6-614.624Z" transform="translate(223.669 167.676)" fill="#07f" stroke="#07f" stroke-width="1"/></g></svg>