<svg xmlns="http://www.w3.org/2000/svg" width="83.045" height="87" viewBox="0 0 83.045 87">
  <g id="Logo" transform="translate(2135.045 483)">
    <rect id="Rectangle_5" data-name="Rectangle 5" width="83.045" height="87" transform="translate(-2135.045 -483)" fill="none"/>
    <path id="Path_8" data-name="Path 8" d="M-2401.415-614.545c-4.2,12.735-6.155,19.677-3.446,29.965a27.187,27.187,0,0,0,7.43,12.124,48.536,48.536,0,0,0,13.695,8.4,72,72,0,0,1-2.731-12.284,32.655,32.655,0,0,1,.484-9.89l-4.83-6.167-5.358-7.317s2.878,2.333,5.612,5.067,5.325,5.87,5.325,5.87a28.575,28.575,0,0,1,2.6-4.821,17.461,17.461,0,0,1,3.247-3.419,33.52,33.52,0,0,1-5.094-2.7c-1.048-.661-2.536-1.377-4.119-2.25-.118-.065-.322-.18-.526-.3-.356-.205-2.484-1.524-2.635-1.566C-2398.532-607.393-2401.415-614.545-2401.415-614.545Z" transform="translate(283.919 160.059)" fill="#07f"/>
    <path id="Path_9" data-name="Path 9" d="M-2363.6-658.222l10.072,5.56s1.836-9.075,3.357-14.321,2.728-6.662,2.728-6.662-.846,1.822-1.078,2.553c-.143.451.318-.156,0,.972-.053.188-.107.384-.206.746a66.532,66.532,0,0,0-1.444,6.588,81.566,81.566,0,0,0-.891,11.488l2.413,1.679,15.738-9.075a52.107,52.107,0,0,0-1.574-9.652c-1.246-4.262-1.141-3.764-3.41-7.4s-2.794-4-5.666-7.134a51.445,51.445,0,0,0-5.823-5.4,16.2,16.2,0,0,1-.21,6.4,20.609,20.609,0,0,1-3.147,6.137,126.166,126.166,0,0,0-7.449,10.229A27.824,27.824,0,0,0-2363.6-658.222Z" transform="translate(255.369 211.201)" fill="#07f"/>
    <path id="Path_10" data-name="Path 10" d="M-2307.63-614.636a53.668,53.668,0,0,1,4.228,11.365,39.8,39.8,0,0,1,.682,11.047,28.676,28.676,0,0,1-1.364,8.524,31.447,31.447,0,0,1-4.3,7.774,28.131,28.131,0,0,1-8.456,7.638c-5.626,3.359-14.048,6.031-14.048,5.8a100.2,100.2,0,0,1,7.229-22.572l.139-.282a56.714,56.714,0,0,1,4.635-7.628,50.988,50.988,0,0,1,5.8-6.41,71.346,71.346,0,0,0-13.366,14.8,83.732,83.732,0,0,0-8.592,19.094,57.539,57.539,0,0,1-2.66-9.888,29.016,29.016,0,0,1,0-8.32l.954-3.819a19.978,19.978,0,0,1,3.069-5.456,33.244,33.244,0,0,1,4.705-4.569s14.949-7.411,18.685-10.843a7.21,7.21,0,0,0,2.659-5.524C-2307.4-614.943-2307.63-614.636-2307.63-614.636Z" transform="translate(238.284 160.149)" fill="#07f"/>
  </g>
</svg>
